<?xml version="1.0" encoding="UTF-8" standalone="no"?>
<!DOCTYPE svg PUBLIC "-//W3C//DTD SVG 1.1//EN"
 "http://www.w3.org/Graphics/SVG/1.1/DTD/svg11.dtd">
<!-- Generated by graphviz version 12.2.1 (20241206.2353)
 -->
<!-- Pages: 1 -->
<svg width="422pt" height="260pt"
 viewBox="0.00 0.00 422.00 260.00" xmlns="http://www.w3.org/2000/svg" xmlns:xlink="http://www.w3.org/1999/xlink">
<g id="graph0" class="graph" transform="scale(1 1) rotate(0) translate(4 256)">
<polygon fill="#202124" stroke="none" points="-4,4 -4,-256 418,-256 418,4 -4,4"/>
<!-- T1 -->
<g id="node1" class="node">
<title>T1</title>
<ellipse fill="none" stroke="#405081" cx="171" cy="-90" rx="27" ry="18"/>
<text text-anchor="middle" x="171" y="-84.95" font-family="Times,serif" font-size="14.00" fill="#cfdbff">@</text>
</g>
<!-- T2 -->
<g id="node2" class="node">
<title>T2</title>
<ellipse fill="none" stroke="#405081" cx="27" cy="-18" rx="27" ry="18"/>
<text text-anchor="middle" x="27" y="-12.95" font-family="Times,serif" font-size="14.00" fill="#cfdbff">@</text>
</g>
<!-- T3 -->
<g id="node3" class="node">
<title>T3</title>
<ellipse fill="none" stroke="#405081" cx="99" cy="-18" rx="27" ry="18"/>
<text text-anchor="middle" x="99" y="-12.95" font-family="Times,serif" font-size="14.00" fill="#cfdbff">@</text>
</g>
<!-- T4 -->
<g id="node4" class="node">
<title>T4</title>
<ellipse fill="none" stroke="#405081" cx="243" cy="-18" rx="27" ry="18"/>
<text text-anchor="middle" x="243" y="-12.95" font-family="Times,serif" font-size="14.00" fill="#cfdbff">@</text>
</g>
<!-- T5 -->
<g id="node5" class="node">
<title>T5</title>
<ellipse fill="none" stroke="#405081" cx="315" cy="-18" rx="27" ry="18"/>
<text text-anchor="middle" x="315" y="-12.95" font-family="Times,serif" font-size="14.00" fill="#cfdbff">@</text>
</g>
<!-- T6 -->
<g id="node6" class="node">
<title>T6</title>
<ellipse fill="none" stroke="#405081" cx="387" cy="-18" rx="27" ry="18"/>
<text text-anchor="middle" x="387" y="-12.95" font-family="Times,serif" font-size="14.00" fill="#cfdbff">@</text>
</g>
<!-- RR -->
<g id="node7" class="node">
<title>RR</title>
<ellipse fill="none" stroke="#5f626b" cx="207" cy="-234" rx="27" ry="18"/>
<text text-anchor="middle" x="207" y="-228.95" font-family="Times,serif" font-size="14.00" fill="#f1f3f4">RR</text>
</g>
<!-- A -->
<g id="node8" class="node">
<title>A</title>
<ellipse fill="none" stroke="#5f626b" cx="99" cy="-162" rx="27" ry="18"/>
<text text-anchor="middle" x="99" y="-156.95" font-family="Times,serif" font-size="14.00" fill="#f1f3f4">A</text>
</g>
<!-- RR&#45;&gt;A -->
<g id="edge1" class="edge">
<title>RR&#45;&gt;A</title>
<path fill="none" stroke="#5f626b" d="M188.19,-220.81C171.41,-209.93 146.61,-193.86 127.41,-181.42"/>
<polygon fill="#5f626b" stroke="#5f626b" points="129.52,-178.61 119.23,-176.11 125.72,-184.49 129.52,-178.61"/>
</g>
<!-- B -->
<g id="node9" class="node">
<title>B</title>
<ellipse fill="none" stroke="#5f626b" cx="207" cy="-162" rx="27" ry="18"/>
<text text-anchor="middle" x="207" y="-156.95" font-family="Times,serif" font-size="14.00" fill="#f1f3f4">B</text>
</g>
<!-- RR&#45;&gt;B -->
<g id="edge2" class="edge">
<title>RR&#45;&gt;B</title>
<path fill="none" stroke="#5f626b" d="M207,-215.7C207,-208.41 207,-199.73 207,-191.54"/>
<polygon fill="#5f626b" stroke="#5f626b" points="210.5,-191.62 207,-181.62 203.5,-191.62 210.5,-191.62"/>
</g>
<!-- C -->
<g id="node10" class="node">
<title>C</title>
<ellipse fill="none" stroke="#5f626b" cx="315" cy="-162" rx="27" ry="18"/>
<text text-anchor="middle" x="315" y="-156.95" font-family="Times,serif" font-size="14.00" fill="#f1f3f4">C</text>
</g>
<!-- RR&#45;&gt;C -->
<g id="edge3" class="edge">
<title>RR&#45;&gt;C</title>
<path fill="none" stroke="#5f626b" d="M225.81,-220.81C242.59,-209.93 267.39,-193.86 286.59,-181.42"/>
<polygon fill="#5f626b" stroke="#5f626b" points="288.28,-184.49 294.77,-176.11 284.48,-178.61 288.28,-184.49"/>
</g>
<!-- D -->
<g id="node11" class="node">
<title>D</title>
<ellipse fill="none" stroke="#5f626b" cx="27" cy="-90" rx="27" ry="18"/>
<text text-anchor="middle" x="27" y="-84.95" font-family="Times,serif" font-size="14.00" fill="#f1f3f4">D</text>
</g>
<!-- A&#45;&gt;D -->
<g id="edge4" class="edge">
<title>A&#45;&gt;D</title>
<path fill="none" stroke="#5f626b" d="M84.08,-146.5C74.23,-136.92 61.14,-124.19 49.97,-113.34"/>
<polygon fill="#5f626b" stroke="#5f626b" points="52.59,-111 42.98,-106.54 47.71,-116.02 52.59,-111"/>
</g>
<!-- E -->
<g id="node12" class="node">
<title>E</title>
<ellipse fill="none" stroke="#5f626b" cx="99" cy="-90" rx="27" ry="18"/>
<text text-anchor="middle" x="99" y="-84.95" font-family="Times,serif" font-size="14.00" fill="#f1f3f4">E</text>
</g>
<!-- A&#45;&gt;E -->
<g id="edge5" class="edge">
<title>A&#45;&gt;E</title>
<path fill="none" stroke="#5f626b" d="M99,-143.7C99,-136.41 99,-127.73 99,-119.54"/>
<polygon fill="#5f626b" stroke="#5f626b" points="102.5,-119.62 99,-109.62 95.5,-119.62 102.5,-119.62"/>
</g>
<!-- B&#45;&gt;T1 -->
<g id="edge7" class="edge">
<title>B&#45;&gt;T1</title>
<path fill="none" stroke="#5f626b" d="M198.65,-144.76C194.42,-136.55 189.19,-126.37 184.42,-117.09"/>
<polygon fill="#5f626b" stroke="#5f626b" points="187.68,-115.79 180,-108.49 181.46,-118.99 187.68,-115.79"/>
</g>
<!-- F -->
<g id="node13" class="node">
<title>F</title>
<ellipse fill="none" stroke="#5f626b" cx="243" cy="-90" rx="27" ry="18"/>
<text text-anchor="middle" x="243" y="-84.95" font-family="Times,serif" font-size="14.00" fill="#f1f3f4">F</text>
</g>
<!-- B&#45;&gt;F -->
<g id="edge6" class="edge">
<title>B&#45;&gt;F</title>
<path fill="none" stroke="#5f626b" d="M215.35,-144.76C219.58,-136.55 224.81,-126.37 229.58,-117.09"/>
<polygon fill="#5f626b" stroke="#5f626b" points="232.54,-118.99 234,-108.49 226.32,-115.79 232.54,-118.99"/>
</g>
<!-- G -->
<g id="node14" class="node">
<title>G</title>
<ellipse fill="none" stroke="#5f626b" cx="315" cy="-90" rx="27" ry="18"/>
<text text-anchor="middle" x="315" y="-84.95" font-family="Times,serif" font-size="14.00" fill="#f1f3f4">G</text>
</g>
<!-- C&#45;&gt;G -->
<g id="edge8" class="edge">
<title>C&#45;&gt;G</title>
<path fill="none" stroke="#5f626b" d="M315,-143.7C315,-136.41 315,-127.73 315,-119.54"/>
<polygon fill="#5f626b" stroke="#5f626b" points="318.5,-119.62 315,-109.62 311.5,-119.62 318.5,-119.62"/>
</g>
<!-- H -->
<g id="node15" class="node">
<title>H</title>
<ellipse fill="none" stroke="#5f626b" cx="387" cy="-90" rx="27" ry="18"/>
<text text-anchor="middle" x="387" y="-84.95" font-family="Times,serif" font-size="14.00" fill="#f1f3f4">H</text>
</g>
<!-- C&#45;&gt;H -->
<g id="edge9" class="edge">
<title>C&#45;&gt;H</title>
<path fill="none" stroke="#5f626b" d="M329.92,-146.5C339.77,-136.92 352.86,-124.19 364.03,-113.34"/>
<polygon fill="#5f626b" stroke="#5f626b" points="366.29,-116.02 371.02,-106.54 361.41,-111 366.29,-116.02"/>
</g>
<!-- D&#45;&gt;T2 -->
<g id="edge10" class="edge">
<title>D&#45;&gt;T2</title>
<path fill="none" stroke="#5f626b" d="M27,-71.7C27,-64.41 27,-55.73 27,-47.54"/>
<polygon fill="#5f626b" stroke="#5f626b" points="30.5,-47.62 27,-37.62 23.5,-47.62 30.5,-47.62"/>
</g>
<!-- E&#45;&gt;T3 -->
<g id="edge11" class="edge">
<title>E&#45;&gt;T3</title>
<path fill="none" stroke="#5f626b" d="M99,-71.7C99,-64.41 99,-55.73 99,-47.54"/>
<polygon fill="#5f626b" stroke="#5f626b" points="102.5,-47.62 99,-37.62 95.5,-47.62 102.5,-47.62"/>
</g>
<!-- F&#45;&gt;T4 -->
<g id="edge12" class="edge">
<title>F&#45;&gt;T4</title>
<path fill="none" stroke="#5f626b" d="M243,-71.7C243,-64.41 243,-55.73 243,-47.54"/>
<polygon fill="#5f626b" stroke="#5f626b" points="246.5,-47.62 243,-37.62 239.5,-47.62 246.5,-47.62"/>
</g>
<!-- G&#45;&gt;T5 -->
<g id="edge13" class="edge">
<title>G&#45;&gt;T5</title>
<path fill="none" stroke="#5f626b" d="M315,-71.7C315,-64.41 315,-55.73 315,-47.54"/>
<polygon fill="#5f626b" stroke="#5f626b" points="318.5,-47.62 315,-37.62 311.5,-47.62 318.5,-47.62"/>
</g>
<!-- H&#45;&gt;T6 -->
<g id="edge14" class="edge">
<title>H&#45;&gt;T6</title>
<path fill="none" stroke="#5f626b" d="M387,-71.7C387,-64.41 387,-55.73 387,-47.54"/>
<polygon fill="#5f626b" stroke="#5f626b" points="390.5,-47.62 387,-37.62 383.5,-47.62 390.5,-47.62"/>
</g>
</g>
</svg>
